<svg width="1968" height="452" viewBox="0 0 1968 452" fill="none" xmlns="http://www.w3.org/2000/svg">
<path fill-rule="evenodd" clip-rule="evenodd" d="M390.032 98.5538C367.428 97.6156 345.09 103.958 324.973 115.882C309.761 124.898 309.617 124.661 309.576 106.222C309.562 100.288 309.574 94.3551 309.574 88.4208C309.574 65.675 309.628 42.9283 309.555 20.183C309.499 2.74772 307.006 0.223084 290.147 0.040903C285.2 -0.0127628 280.253 -0.0141781 275.307 0.0399584C259.196 0.21602 258.228 1.03607 258.187 16.6627C258.096 50.7814 258.159 84.9005 258.159 119.019H258.119C258.119 153.139 258.117 187.258 258.122 221.377C258.123 227.275 257.145 233.624 262.58 237.854C273.508 246.361 284.899 254.297 297.169 260.705C303.852 264.194 308.486 261.139 309.285 253.084C309.966 246.224 309.866 239.235 309.499 232.335C308.618 215.807 314.041 201.127 322.694 187.586C353.084 140.03 418.205 137.85 451.573 182.807C469.271 206.646 472.233 233.556 467.881 261.744C464.632 282.805 453.282 299.193 436.064 311.614C406.778 332.739 374.279 333.909 341.242 324.736C309.913 316.038 282.948 298.018 256.704 279.385C237.366 265.655 218.824 250.81 199.709 236.759C167.203 212.865 130.917 204.909 91.6931 213.95C49.4024 223.698 19.3281 248.991 2.26715 289.094C-2.76807 300.931 0.433336 305.565 13.383 305.922C24.2578 306.223 35.1552 305.73 46.0267 306.077C53.3681 306.311 58.3685 303.629 61.2901 296.865C62.264 294.609 63.6471 292.521 64.9384 290.414C79.5341 266.601 105.545 256.228 132.575 263.413C144.61 266.612 155.775 271.699 166.278 278.398C190.061 293.567 212.807 310.189 235.372 327.084C281.1 361.32 329.773 385.896 389.717 380.832C430.357 377.398 464.152 362.375 490.307 331.261C511.113 306.505 520.334 277.608 520.758 245.136C521.139 216.226 515.954 189.135 501.068 164.299C475.972 122.436 438.076 100.549 390.032 98.5538Z" fill="#F5F5F5"/>
<path fill-rule="evenodd" clip-rule="evenodd" d="M1338.51 233.484C1332.18 225.108 1332.26 224.527 1339.08 217.33C1349.95 205.845 1360.9 194.433 1371.94 183.111C1390.93 163.642 1410.06 144.307 1429.01 124.801C1431.58 122.153 1435.94 119.844 1433.85 115.001C1431.74 110.116 1427.18 109.75 1422.55 109.768C1411.67 109.811 1400.76 110.225 1389.91 109.605C1381.73 109.138 1376.07 112.117 1370.55 117.969C1336.62 153.913 1302.42 189.598 1268.18 225.256C1264.88 228.699 1261.57 235.228 1257.01 233.686C1255.53 233.185 1254.59 232.387 1254 231.406V219.257C1253.78 155.473 1253.86 91.6877 1253.86 27.9027C1253.86 24.4417 1254.06 20.961 1253.77 17.5236C1253.12 9.81689 1250.35 6.45902 1243 6.14079C1232.63 5.69263 1222.23 5.86399 1211.85 6.19963C1206.13 6.38464 1202.77 9.56034 1202.89 15.7131C1202.97 19.666 1202.85 23.6236 1202.85 27.5788C1202.84 81.4743 1202.85 135.371 1202.85 189.266C1202.85 221.405 1202.84 253.545 1202.85 285.685C1202.85 310.902 1202.73 336.121 1202.92 361.336C1203 371.998 1204.63 373.744 1214.59 374.159C1223.48 374.528 1232.4 374.517 1241.29 374.168C1250.58 373.804 1253.4 370.875 1253.78 361.437C1253.84 359.8 1253.92 358.155 1254 356.507V356.508V356.506C1254.26 351.159 1254.48 345.786 1254 340.526V328.094C1254 328.094 1253.19 318.364 1255.57 309.057C1256.65 305.675 1258.08 302.426 1259.81 299.286C1264.03 293.282 1275.41 281.582 1284.46 272.585C1298.02 260.047 1295.43 258.758 1312.75 281.18C1334.21 308.956 1355.75 336.673 1376.85 364.721C1382.19 371.81 1388.21 374.986 1396.99 374.38C1404.87 373.837 1412.81 374.32 1420.72 374.249C1426.56 374.196 1433.57 375.721 1436.62 369.191C1439.75 362.508 1433.32 358.541 1429.91 354.035C1399.49 313.819 1368.93 273.7 1338.51 233.484Z" fill="#F5F5F5"/>
<path fill-rule="evenodd" clip-rule="evenodd" d="M761.275 304.63C730.321 340.128 670.776 344.975 634.495 302.862C601.996 265.146 605.75 204.44 641.395 172.51C657.656 157.944 676.211 150.443 693.753 151.43C729.624 151.156 753.114 165.36 769.677 191.422C791.928 226.434 788.519 273.387 761.275 304.63ZM698.378 104.439C612.696 104.377 561.115 173.246 561.063 241.881C561.011 311.528 611.434 378.786 696.484 379.334C782.255 379.887 835.598 314.089 835.221 241.928C836.309 171.648 783.569 104.502 698.378 104.439Z" fill="#F5F5F5"/>
<path fill-rule="evenodd" clip-rule="evenodd" d="M1102.27 243.192C1100.93 277.531 1087.96 305.697 1056.78 322.583C1009.11 348.411 948.54 323.754 933.635 265.398C927.066 239.696 930.494 215.126 943.727 192.521C958.364 167.51 980.328 153.827 1009.97 151.485C1068.43 146.868 1104.62 199.736 1102.27 243.192ZM1016.92 104.5C933.89 104.559 879.582 168.403 879.435 241.673C879.285 316.161 932.943 379.602 1016.01 379.356C1106.65 379.085 1155.06 307.054 1153.2 242.17C1156.24 174.902 1103.5 104.439 1016.92 104.5Z" fill="#F5F5F5"/>
<path fill-rule="evenodd" clip-rule="evenodd" d="M1952.14 109.788C1945.7 109.729 1939.27 109.757 1932.84 109.785C1917.95 109.85 1917.76 109.786 1912.5 123.369C1891.47 177.712 1870.68 232.147 1849.45 286.412C1849.17 287.131 1848.94 287.934 1848.74 288.773C1847.94 290.853 1847.03 292.996 1846.23 294.443C1844.15 298.173 1841.46 297.864 1839.63 297.864C1837.8 297.864 1836.33 294.809 1836.33 294.809L1831.68 285.299C1809.33 234.353 1787.29 183.269 1764.84 132.369C1753.63 106.955 1759.9 110 1730.63 109.911C1724.2 109.911 1717.73 109.459 1711.35 110.03C1704.13 110.677 1702.15 114.244 1704.65 121.112C1706.33 125.745 1708.43 130.235 1710.48 134.726C1743.32 206.628 1775.78 278.707 1809.4 350.247C1815.62 363.493 1813.57 373.22 1806.68 384.592C1796.16 401.941 1781.22 408.835 1761.63 405.988C1755.35 405.076 1749.17 402.937 1743.16 400.77C1729.86 395.975 1729.23 396.059 1723.22 409.199C1720.96 414.139 1719.37 419.402 1716.88 424.211C1710.67 436.173 1715.2 438.789 1725.23 442.781C1741.01 449.056 1757.24 451.805 1774.37 451.994C1804.34 452.328 1826.52 439.476 1843.15 415.456C1851.36 403.603 1857.55 390.702 1862.97 377.397C1886.46 319.764 1909.98 262.144 1933.44 204.502C1943.88 178.883 1954.22 153.23 1964.58 127.581C1970.87 111.988 1969.44 109.948 1952.14 109.788Z" fill="#F5F5F5"/>
<path fill-rule="evenodd" clip-rule="evenodd" d="M1625.24 228.126C1607.9 220.831 1589.53 216.704 1571.84 210.518C1562.96 207.413 1554.17 204.213 1546.42 198.671C1530.2 187.078 1530.68 168.035 1547.65 157.488C1557.64 151.281 1569.06 149.081 1580.33 150.001C1599.64 151.578 1618.12 157.05 1635.15 166.691C1638.16 168.395 1641.21 170.062 1644.33 171.547C1650.07 174.279 1654.85 173.305 1658.28 167.588C1661.83 161.656 1665.6 155.846 1669.02 149.839C1675.25 138.902 1674.63 135.785 1663.8 129.714C1637.57 115.006 1609.82 105.433 1579.25 106.546C1574.3 106.546 1569.35 106.27 1564.42 106.593C1540.77 108.145 1520.4 117.029 1504.15 134.472C1477.64 162.921 1475.26 216.666 1519.34 241.251C1529.73 247.047 1540.5 251.988 1551.87 255.487C1562.71 258.821 1573.73 261.566 1584.51 265.093C1596.21 268.924 1608.25 272.111 1618.47 279.454C1633.12 289.977 1634.83 307.275 1622.44 320.361C1614.92 328.297 1605.33 331.517 1594.6 332.443C1565.27 334.974 1538.55 327.103 1514.64 310.808C1493.65 296.498 1494.97 302.69 1484.8 316.482C1469.79 336.841 1470.2 338.172 1492.53 351.747C1524.24 371.033 1558.6 379.888 1595.77 377.448C1618.73 375.94 1639.08 368.049 1656.04 352.383C1683.29 327.23 1687.96 278.15 1662.44 251.886C1651.9 241.037 1639.04 233.931 1625.24 228.126Z" fill="#F5F5F5"/>
</svg>
