<svg xmlns="http://www.w3.org/2000/svg" xmlns:xlink="http://www.w3.org/1999/xlink" width="500" zoomAndPan="magnify" viewBox="0 0 375 374.999991" height="500" preserveAspectRatio="xMidYMid meet" version="1.0"><defs><g/><clipPath id="9f4ee52bcf"><path d="M 81.917969 82 L 293.417969 82 L 293.417969 293.785156 L 81.917969 293.785156 Z M 81.917969 82 " clip-rule="nonzero"/></clipPath></defs><g clip-path="url(#9f4ee52bcf)"><path fill="#ffbd59" d="M 281.53125 183.144531 C 281.53125 140.765625 281.441406 101.515625 281.441406 101.019531 L 281.167969 101.019531 C 281.167969 95.074219 281.167969 91.625 281.167969 91.625 C 281.121094 91.488281 276.359375 91.351562 268.371094 91.308594 C 267.464844 85.5 267.011719 82.097656 267.011719 82.097656 C 266.828125 81.78125 236.515625 85.953125 200.488281 91.035156 C 196.085938 91.035156 191.59375 91.035156 187.148438 91.035156 C 140.863281 91.035156 94.804688 91.125 94.261719 91.125 L 94.261719 91.851562 C 94.261719 92.261719 94.261719 96.980469 94.214844 104.691406 C 94.214844 105.191406 94.214844 105.738281 94.171875 106.328125 C 86.636719 107.414062 82.101562 108.097656 81.917969 108.097656 L 82.011719 108.820312 C 82.191406 110.046875 87.816406 150.382812 93.808594 193.035156 C 93.808594 210.867188 93.808594 228.746094 93.851562 244.082031 C 93.808594 263.910156 93.808594 277.65625 93.851562 278.203125 C 93.851562 278.203125 93.851562 278.203125 93.898438 278.203125 C 93.898438 284.101562 93.898438 287.503906 93.898438 287.503906 C 93.945312 287.640625 98.890625 287.730469 107.195312 287.777344 C 107.691406 291.132812 107.964844 293.085938 108.011719 293.265625 C 108.054688 293.539062 125.117188 291.222656 148.851562 287.914062 C 161.011719 287.914062 174.167969 287.957031 187.375 287.957031 C 234.113281 287.957031 280.894531 287.867188 280.894531 287.867188 C 281.078125 287.777344 281.214844 280.5625 281.304688 268.992188 C 288.699219 267.902344 293.054688 267.265625 293.054688 267.265625 C 293.417969 267.085938 287.703125 226.386719 281.53125 183.144531 Z M 280.035156 277.65625 C 252.535156 277.65625 234.25 277.703125 221 277.703125 C 244.820312 274.300781 266.738281 271.125 280.035156 269.171875 C 280.035156 271.941406 280.035156 274.753906 280.035156 277.65625 Z M 187.148438 277.75 C 172.761719 277.75 158.195312 277.792969 106.558594 277.839844 C 98.800781 224.117188 97.164062 212.546875 94.851562 196.757812 C 94.851562 180.785156 94.804688 167.492188 94.761719 107.734375 C 114.273438 104.917969 128.429688 102.878906 139.230469 101.335938 C 165.773438 101.289062 176.621094 101.289062 187.417969 101.289062 C 201.941406 101.246094 216.324219 101.199219 268.507812 101.0625 C 276.132812 154.242188 277.582031 164.40625 279.988281 180.964844 C 279.988281 197.347656 279.988281 209.414062 280.035156 268.175781 C 243.730469 273.394531 226.035156 275.933594 213.738281 277.703125 C 201.714844 277.703125 194.453125 277.75 187.148438 277.75 Z M 206.523438 278.746094 C 200.125 279.652344 194.632812 280.472656 187.191406 281.515625 L 150.800781 286.734375 L 107.828125 286.777344 C 107.421875 283.917969 107.011719 281.152344 106.648438 278.472656 C 123.664062 278.65625 155.382812 278.703125 187.148438 278.703125 C 193.636719 278.746094 200.171875 278.746094 206.523438 278.746094 Z M 94.761719 101.378906 C 108.054688 101.378906 119.171875 101.335938 128.65625 101.335938 C 115 103.285156 103.15625 105.011719 94.761719 106.234375 C 94.761719 104.648438 94.761719 103.015625 94.761719 101.378906 Z M 94.851562 200.296875 C 99.070312 230.242188 103.292969 260.234375 105.789062 277.792969 C 102.339844 277.792969 98.707031 277.792969 94.898438 277.792969 C 94.898438 231.011719 94.851562 213.636719 94.851562 200.296875 Z M 143.902344 100.65625 C 165.640625 97.523438 172.761719 96.527344 187.191406 94.4375 L 200.441406 92.53125 L 267.28125 92.53125 C 267.691406 95.480469 268.097656 98.296875 268.507812 101.019531 C 251.582031 100.972656 219.5 100.882812 187.464844 100.789062 C 172.398438 100.746094 157.378906 100.699219 143.902344 100.65625 Z M 279.988281 172.210938 C 276.132812 145.121094 272.226562 118.304688 269.734375 101.0625 C 273 101.0625 276.359375 101.0625 279.941406 101.019531 C 279.941406 140.71875 279.941406 159.324219 279.988281 172.210938 Z M 279.941406 92.488281 C 279.941406 95.4375 279.941406 98.25 279.941406 101.019531 C 278.445312 101.019531 274.859375 101.019531 269.734375 100.972656 C 269.277344 97.796875 268.871094 94.9375 268.507812 92.488281 Z M 265.921875 83.140625 C 266.328125 85.953125 266.691406 88.675781 267.101562 91.308594 C 254.078125 91.171875 233.339844 91.125 210.699219 91.082031 Z M 94.261719 92.625 L 187.148438 92.578125 L 190.007812 92.578125 C 189.054688 92.714844 188.144531 92.851562 187.191406 92.988281 C 168.996094 95.574219 150.121094 98.296875 133.511719 100.699219 C 111.050781 100.65625 94.988281 100.65625 94.441406 100.699219 C 94.398438 100.699219 94.351562 101.289062 94.308594 102.425781 C 94.261719 99.25 94.261719 95.980469 94.261719 92.625 Z M 82.144531 109.546875 C 86.367188 108.957031 90.359375 108.367188 94.171875 107.824219 C 93.945312 122.070312 93.851562 155.511719 93.851562 189.769531 C 91.855469 176.113281 88.953125 156.238281 82.144531 109.546875 Z M 94.898438 286.824219 C 94.898438 283.875 94.898438 281.0625 94.898438 278.292969 C 96.621094 278.382812 100.476562 278.429688 105.878906 278.519531 C 106.332031 281.742188 106.742188 284.554688 107.058594 286.824219 Z M 108.738281 292.8125 C 108.511719 291.089844 108.238281 289.410156 108.011719 287.777344 C 116.722656 287.867188 128.839844 287.914062 142.679688 287.914062 Z M 187.417969 286.734375 L 157.335938 286.734375 C 166.683594 285.417969 176.800781 283.964844 187.148438 282.511719 C 195.949219 281.242188 204.933594 279.972656 213.738281 278.703125 C 247 278.703125 275.40625 278.609375 280.035156 278.609375 C 280.035156 281.195312 280.035156 283.875 280.035156 286.640625 Z M 281.347656 267.992188 C 281.484375 249.480469 281.53125 220.488281 281.53125 191.8125 C 283.480469 205.421875 286.429688 225.796875 292.238281 266.40625 C 288.429688 266.949219 284.796875 267.492188 281.347656 267.992188 Z M 281.347656 267.992188 " fill-opacity="1" fill-rule="evenodd"/></g><g fill="#ffbd59" fill-opacity="1"><g transform="translate(117.189096, 168.706189)"><g><path d="M 12.109375 -23.578125 C 13.421875 -23.578125 14.53125 -23.390625 15.4375 -23.015625 C 16.351562 -22.648438 17.25 -22.128906 18.125 -21.453125 C 18.363281 -21.253906 18.570312 -21.15625 18.75 -21.15625 C 19.175781 -21.15625 19.457031 -21.8125 19.59375 -23.125 L 20.34375 -23.125 C 20.257812 -21.707031 20.21875 -19.203125 20.21875 -15.609375 L 19.46875 -15.609375 C 19.226562 -17.023438 19.007812 -18.039062 18.8125 -18.65625 C 18.613281 -19.28125 18.285156 -19.875 17.828125 -20.4375 C 17.171875 -21.289062 16.335938 -21.925781 15.328125 -22.34375 C 14.316406 -22.769531 13.222656 -22.984375 12.046875 -22.984375 C 10.628906 -22.984375 9.394531 -22.515625 8.34375 -21.578125 C 7.289062 -20.648438 6.46875 -19.316406 5.875 -17.578125 C 5.289062 -15.847656 5 -13.820312 5 -11.5 C 5 -9.125 5.3125 -7.085938 5.9375 -5.390625 C 6.570312 -3.691406 7.445312 -2.398438 8.5625 -1.515625 C 9.6875 -0.640625 10.957031 -0.203125 12.375 -0.203125 C 13.46875 -0.203125 14.523438 -0.40625 15.546875 -0.8125 C 16.566406 -1.226562 17.367188 -1.847656 17.953125 -2.671875 C 18.390625 -3.285156 18.707031 -3.941406 18.90625 -4.640625 C 19.101562 -5.335938 19.289062 -6.40625 19.46875 -7.84375 L 20.21875 -7.84375 C 20.21875 -4.09375 20.257812 -1.476562 20.34375 0 L 19.59375 0 C 19.53125 -0.695312 19.4375 -1.191406 19.3125 -1.484375 C 19.195312 -1.773438 19.03125 -1.921875 18.8125 -1.921875 C 18.632812 -1.921875 18.40625 -1.835938 18.125 -1.671875 C 17.144531 -0.972656 16.207031 -0.441406 15.3125 -0.078125 C 14.425781 0.273438 13.347656 0.453125 12.078125 0.453125 C 10.015625 0.453125 8.203125 -0.0078125 6.640625 -0.9375 C 5.085938 -1.875 3.878906 -3.226562 3.015625 -5 C 2.160156 -6.78125 1.734375 -8.898438 1.734375 -11.359375 C 1.734375 -13.753906 2.171875 -15.878906 3.046875 -17.734375 C 3.929688 -19.585938 5.160156 -21.023438 6.734375 -22.046875 C 8.316406 -23.066406 10.109375 -23.578125 12.109375 -23.578125 Z M 12.109375 -23.578125 "/></g></g></g><g fill="#ffbd59" fill-opacity="1"><g transform="translate(139.655694, 168.706189)"><g><path d="M 21.546875 -1.625 C 21.046875 -0.882812 20.546875 -0.351562 20.046875 -0.03125 C 19.546875 0.289062 18.882812 0.453125 18.0625 0.453125 C 17.164062 0.453125 16.425781 0.191406 15.84375 -0.328125 C 15.269531 -0.847656 14.84375 -1.757812 14.5625 -3.0625 L 13.84375 -6.328125 C 13.582031 -7.460938 13.335938 -8.332031 13.109375 -8.9375 C 12.878906 -9.550781 12.535156 -10.039062 12.078125 -10.40625 C 11.617188 -10.78125 10.976562 -10.96875 10.15625 -10.96875 L 7.046875 -10.96875 L 7.046875 -3.46875 C 7.046875 -2.632812 7.113281 -2.03125 7.25 -1.65625 C 7.382812 -1.289062 7.628906 -1.039062 7.984375 -0.90625 C 8.335938 -0.78125 8.910156 -0.695312 9.703125 -0.65625 L 9.703125 0 C 8.703125 -0.0625 7.316406 -0.09375 5.546875 -0.09375 C 3.679688 -0.09375 2.289062 -0.0625 1.375 0 L 1.375 -0.65625 C 2.15625 -0.695312 2.722656 -0.78125 3.078125 -0.90625 C 3.441406 -1.039062 3.6875 -1.289062 3.8125 -1.65625 C 3.945312 -2.03125 4.015625 -2.632812 4.015625 -3.46875 L 4.015625 -19.65625 C 4.015625 -20.488281 3.945312 -21.085938 3.8125 -21.453125 C 3.6875 -21.828125 3.441406 -22.078125 3.078125 -22.203125 C 2.722656 -22.335938 2.15625 -22.425781 1.375 -22.46875 L 1.375 -23.125 C 2.289062 -23.050781 3.617188 -23.015625 5.359375 -23.015625 L 8.875 -23.0625 C 9.289062 -23.082031 9.757812 -23.09375 10.28125 -23.09375 C 12.8125 -23.09375 14.753906 -22.5625 16.109375 -21.5 C 17.472656 -20.445312 18.15625 -19.082031 18.15625 -17.40625 C 18.15625 -16.550781 17.953125 -15.691406 17.546875 -14.828125 C 17.148438 -13.972656 16.476562 -13.203125 15.53125 -12.515625 C 14.582031 -11.835938 13.347656 -11.378906 11.828125 -11.140625 L 12.21875 -11.078125 C 13.65625 -10.835938 14.695312 -10.398438 15.34375 -9.765625 C 16 -9.128906 16.476562 -8.128906 16.78125 -6.765625 L 17.609375 -3.421875 C 17.816406 -2.421875 18.039062 -1.722656 18.28125 -1.328125 C 18.519531 -0.941406 18.847656 -0.75 19.265625 -0.75 C 19.640625 -0.75 19.953125 -0.847656 20.203125 -1.046875 C 20.453125 -1.242188 20.738281 -1.554688 21.0625 -1.984375 Z M 9.46875 -22.46875 C 8.789062 -22.46875 8.285156 -22.390625 7.953125 -22.234375 C 7.617188 -22.085938 7.382812 -21.816406 7.25 -21.421875 C 7.113281 -21.023438 7.046875 -20.4375 7.046875 -19.65625 L 7.046875 -11.625 L 9.234375 -11.625 C 11.390625 -11.625 12.867188 -12.101562 13.671875 -13.0625 C 14.484375 -14.019531 14.890625 -15.347656 14.890625 -17.046875 C 14.890625 -18.828125 14.460938 -20.175781 13.609375 -21.09375 C 12.765625 -22.007812 11.382812 -22.46875 9.46875 -22.46875 Z M 9.46875 -22.46875 "/></g></g></g><g fill="#ffbd59" fill-opacity="1"><g transform="translate(160.816091, 168.706189)"><g><path d="M 16.75 -23.015625 C 17.726562 -23.015625 18.546875 -23.050781 19.203125 -23.125 L 19.203125 -22.46875 C 18.765625 -22.351562 18.335938 -22.070312 17.921875 -21.625 C 17.515625 -21.1875 17.070312 -20.5 16.59375 -19.5625 L 11.46875 -9.40625 L 11.46875 -3.46875 C 11.46875 -2.632812 11.53125 -2.03125 11.65625 -1.65625 C 11.789062 -1.289062 12.035156 -1.039062 12.390625 -0.90625 C 12.753906 -0.78125 13.328125 -0.695312 14.109375 -0.65625 L 14.109375 0 C 13.109375 -0.0625 11.722656 -0.09375 9.953125 -0.09375 C 8.085938 -0.09375 6.695312 -0.0625 5.78125 0 L 5.78125 -0.65625 C 6.5625 -0.695312 7.128906 -0.78125 7.484375 -0.90625 C 7.847656 -1.039062 8.09375 -1.289062 8.21875 -1.65625 C 8.351562 -2.03125 8.421875 -2.632812 8.421875 -3.46875 L 8.421875 -8.359375 L 1.796875 -20.609375 C 1.398438 -21.328125 1.054688 -21.8125 0.765625 -22.0625 C 0.472656 -22.3125 0.1875 -22.4375 -0.09375 -22.4375 L -0.09375 -23.125 C 0.75 -23.050781 1.707031 -23.015625 2.78125 -23.015625 C 4.882812 -23.015625 6.40625 -23.050781 7.34375 -23.125 L 7.34375 -22.4375 C 5.820312 -22.4375 5.0625 -22.019531 5.0625 -21.1875 C 5.0625 -20.863281 5.171875 -20.484375 5.390625 -20.046875 L 10.8125 -9.640625 L 14.984375 -17.921875 C 15.578125 -19.078125 15.875 -20.015625 15.875 -20.734375 C 15.875 -21.347656 15.632812 -21.785156 15.15625 -22.046875 C 14.675781 -22.304688 13.957031 -22.445312 13 -22.46875 L 13 -23.125 C 14.238281 -23.050781 15.488281 -23.015625 16.75 -23.015625 Z M 16.75 -23.015625 "/></g></g></g><g fill="#ffbd59" fill-opacity="1"><g transform="translate(180.115152, 168.706189)"><g><path d="M 8.359375 -23.484375 C 9.316406 -23.484375 10.070312 -23.378906 10.625 -23.171875 C 11.1875 -22.960938 11.757812 -22.660156 12.34375 -22.265625 C 12.820312 -21.960938 13.191406 -21.8125 13.453125 -21.8125 C 13.648438 -21.8125 13.800781 -21.925781 13.90625 -22.15625 C 14.019531 -22.382812 14.109375 -22.75 14.171875 -23.25 L 14.921875 -23.25 C 14.816406 -21.988281 14.765625 -19.769531 14.765625 -16.59375 L 14.015625 -16.59375 C 13.878906 -18.351562 13.367188 -19.835938 12.484375 -21.046875 C 11.609375 -22.253906 10.332031 -22.859375 8.65625 -22.859375 C 7.476562 -22.859375 6.519531 -22.503906 5.78125 -21.796875 C 5.039062 -21.085938 4.671875 -20.179688 4.671875 -19.078125 C 4.671875 -18.242188 4.859375 -17.519531 5.234375 -16.90625 C 5.617188 -16.300781 6.101562 -15.78125 6.6875 -15.34375 C 7.28125 -14.90625 8.117188 -14.351562 9.203125 -13.6875 L 10.15625 -13.09375 C 11.53125 -12.25 12.613281 -11.503906 13.40625 -10.859375 C 14.195312 -10.210938 14.832031 -9.472656 15.3125 -8.640625 C 15.789062 -7.816406 16.03125 -6.851562 16.03125 -5.75 C 16.03125 -3.769531 15.375 -2.238281 14.0625 -1.15625 C 12.757812 -0.0820312 11.109375 0.453125 9.109375 0.453125 C 8.066406 0.453125 7.210938 0.34375 6.546875 0.125 C 5.878906 -0.09375 5.242188 -0.382812 4.640625 -0.75 C 4.160156 -1.050781 3.789062 -1.203125 3.53125 -1.203125 C 3.332031 -1.203125 3.175781 -1.085938 3.0625 -0.859375 C 2.957031 -0.628906 2.875 -0.265625 2.8125 0.234375 L 2.0625 0.234375 C 2.144531 -0.960938 2.1875 -3.578125 2.1875 -7.609375 L 2.9375 -7.609375 C 3.09375 -5.410156 3.632812 -3.625 4.5625 -2.25 C 5.5 -0.882812 6.9375 -0.203125 8.875 -0.203125 C 10.050781 -0.203125 11.050781 -0.566406 11.875 -1.296875 C 12.707031 -2.023438 13.125 -3.109375 13.125 -4.546875 C 13.125 -5.765625 12.710938 -6.796875 11.890625 -7.640625 C 11.078125 -8.492188 9.789062 -9.453125 8.03125 -10.515625 C 6.75 -11.296875 5.707031 -11.988281 4.90625 -12.59375 C 4.113281 -13.207031 3.46875 -13.941406 2.96875 -14.796875 C 2.46875 -15.660156 2.21875 -16.671875 2.21875 -17.828125 C 2.21875 -19.660156 2.804688 -21.0625 3.984375 -22.03125 C 5.160156 -23 6.617188 -23.484375 8.359375 -23.484375 Z M 8.359375 -23.484375 "/></g></g></g><g fill="#ffbd59" fill-opacity="1"><g transform="translate(197.748818, 168.706189)"><g><path d="M 19.328125 -23.125 C 19.179688 -21.570312 19.109375 -20.175781 19.109375 -18.9375 C 19.109375 -17.851562 19.140625 -16.960938 19.203125 -16.265625 L 18.453125 -16.265625 C 18.273438 -17.941406 18.054688 -19.1875 17.796875 -20 C 17.535156 -20.8125 17.078125 -21.410156 16.421875 -21.796875 C 15.773438 -22.179688 14.773438 -22.375 13.421875 -22.375 L 11.65625 -22.375 L 11.65625 -3.78125 C 11.65625 -2.875 11.742188 -2.210938 11.921875 -1.796875 C 12.097656 -1.378906 12.398438 -1.09375 12.828125 -0.9375 C 13.265625 -0.789062 13.972656 -0.695312 14.953125 -0.65625 L 14.953125 0 C 13.828125 -0.0625 12.226562 -0.09375 10.15625 -0.09375 C 7.976562 -0.09375 6.367188 -0.0625 5.328125 0 L 5.328125 -0.65625 C 6.304688 -0.695312 7.007812 -0.789062 7.4375 -0.9375 C 7.875 -1.09375 8.179688 -1.378906 8.359375 -1.796875 C 8.535156 -2.210938 8.625 -2.875 8.625 -3.78125 L 8.625 -22.375 L 6.859375 -22.375 C 5.503906 -22.375 4.5 -22.179688 3.84375 -21.796875 C 3.195312 -21.410156 2.742188 -20.8125 2.484375 -20 C 2.222656 -19.1875 2.003906 -17.941406 1.828125 -16.265625 L 1.078125 -16.265625 C 1.140625 -16.960938 1.171875 -17.851562 1.171875 -18.9375 C 1.171875 -20.175781 1.097656 -21.570312 0.953125 -23.125 C 2.753906 -23.050781 5.820312 -23.015625 10.15625 -23.015625 C 14.46875 -23.015625 17.523438 -23.050781 19.328125 -23.125 Z M 19.328125 -23.125 "/></g></g></g><g fill="#ffbd59" fill-opacity="1"><g transform="translate(218.027531, 168.706189)"><g><path d="M 18.515625 -2.75 C 19.035156 -1.394531 19.785156 -0.695312 20.765625 -0.65625 L 20.765625 0 C 19.898438 -0.0625 18.738281 -0.09375 17.28125 -0.09375 C 15.40625 -0.09375 14.007812 -0.0625 13.09375 0 L 13.09375 -0.65625 C 13.925781 -0.695312 14.519531 -0.796875 14.875 -0.953125 C 15.226562 -1.117188 15.40625 -1.421875 15.40625 -1.859375 C 15.40625 -2.234375 15.273438 -2.742188 15.015625 -3.390625 L 13.03125 -8.75 L 5.125 -8.75 L 3.78125 -5.296875 C 3.351562 -4.117188 3.140625 -3.222656 3.140625 -2.609375 C 3.140625 -1.929688 3.375 -1.441406 3.84375 -1.140625 C 4.3125 -0.835938 5.019531 -0.675781 5.96875 -0.65625 L 5.96875 0 C 4.726562 -0.0625 3.476562 -0.09375 2.21875 -0.09375 C 1.238281 -0.09375 0.421875 -0.0625 -0.234375 0 L -0.234375 -0.65625 C 0.859375 -0.914062 1.71875 -1.863281 2.34375 -3.5 L 10.03125 -23.28125 L 10.546875 -23.28125 Z M 12.765625 -9.40625 L 9.109375 -19.171875 L 5.390625 -9.40625 Z M 12.765625 -9.40625 "/></g></g></g><g fill="#ffbd59" fill-opacity="1"><g transform="translate(238.60014, 168.706189)"><g><path d="M 9.703125 -22.46875 C 8.910156 -22.425781 8.335938 -22.335938 7.984375 -22.203125 C 7.628906 -22.078125 7.382812 -21.828125 7.25 -21.453125 C 7.113281 -21.085938 7.046875 -20.488281 7.046875 -19.65625 L 7.046875 -3.46875 C 7.046875 -2.632812 7.113281 -2.03125 7.25 -1.65625 C 7.382812 -1.289062 7.628906 -1.046875 7.984375 -0.921875 C 8.335938 -0.804688 8.910156 -0.75 9.703125 -0.75 L 12.078125 -0.75 C 13.429688 -0.75 14.460938 -0.9375 15.171875 -1.3125 C 15.878906 -1.695312 16.394531 -2.3125 16.71875 -3.15625 C 17.039062 -4.007812 17.28125 -5.242188 17.4375 -6.859375 L 18.1875 -6.859375 C 18.125 -6.179688 18.09375 -5.289062 18.09375 -4.1875 C 18.09375 -2.9375 18.164062 -1.539062 18.3125 0 C 16.832031 -0.0625 14.34375 -0.09375 10.84375 -0.09375 C 6.664062 -0.09375 3.507812 -0.0625 1.375 0 L 1.375 -0.65625 C 2.15625 -0.695312 2.722656 -0.78125 3.078125 -0.90625 C 3.441406 -1.039062 3.6875 -1.289062 3.8125 -1.65625 C 3.945312 -2.03125 4.015625 -2.632812 4.015625 -3.46875 L 4.015625 -19.65625 C 4.015625 -20.488281 3.945312 -21.085938 3.8125 -21.453125 C 3.6875 -21.828125 3.441406 -22.078125 3.078125 -22.203125 C 2.722656 -22.335938 2.15625 -22.425781 1.375 -22.46875 L 1.375 -23.125 C 2.289062 -23.050781 3.679688 -23.015625 5.546875 -23.015625 C 7.285156 -23.015625 8.671875 -23.050781 9.703125 -23.125 Z M 9.703125 -22.46875 "/></g></g></g><g fill="#ffbd59" fill-opacity="1"><g transform="translate(132.83658, 213.573526)"><g><path d="M 12.109375 -23.578125 C 13.421875 -23.578125 14.53125 -23.390625 15.4375 -23.015625 C 16.351562 -22.648438 17.25 -22.128906 18.125 -21.453125 C 18.363281 -21.253906 18.570312 -21.15625 18.75 -21.15625 C 19.175781 -21.15625 19.457031 -21.8125 19.59375 -23.125 L 20.34375 -23.125 C 20.257812 -21.707031 20.21875 -19.203125 20.21875 -15.609375 L 19.46875 -15.609375 C 19.226562 -17.023438 19.007812 -18.039062 18.8125 -18.65625 C 18.613281 -19.28125 18.285156 -19.875 17.828125 -20.4375 C 17.171875 -21.289062 16.335938 -21.925781 15.328125 -22.34375 C 14.316406 -22.769531 13.222656 -22.984375 12.046875 -22.984375 C 10.628906 -22.984375 9.394531 -22.515625 8.34375 -21.578125 C 7.289062 -20.648438 6.46875 -19.316406 5.875 -17.578125 C 5.289062 -15.847656 5 -13.820312 5 -11.5 C 5 -9.125 5.3125 -7.085938 5.9375 -5.390625 C 6.570312 -3.691406 7.445312 -2.398438 8.5625 -1.515625 C 9.6875 -0.640625 10.957031 -0.203125 12.375 -0.203125 C 13.46875 -0.203125 14.523438 -0.40625 15.546875 -0.8125 C 16.566406 -1.226562 17.367188 -1.847656 17.953125 -2.671875 C 18.390625 -3.285156 18.707031 -3.941406 18.90625 -4.640625 C 19.101562 -5.335938 19.289062 -6.40625 19.46875 -7.84375 L 20.21875 -7.84375 C 20.21875 -4.09375 20.257812 -1.476562 20.34375 0 L 19.59375 0 C 19.53125 -0.695312 19.4375 -1.191406 19.3125 -1.484375 C 19.195312 -1.773438 19.03125 -1.921875 18.8125 -1.921875 C 18.632812 -1.921875 18.40625 -1.835938 18.125 -1.671875 C 17.144531 -0.972656 16.207031 -0.441406 15.3125 -0.078125 C 14.425781 0.273438 13.347656 0.453125 12.078125 0.453125 C 10.015625 0.453125 8.203125 -0.0078125 6.640625 -0.9375 C 5.085938 -1.875 3.878906 -3.226562 3.015625 -5 C 2.160156 -6.78125 1.734375 -8.898438 1.734375 -11.359375 C 1.734375 -13.753906 2.171875 -15.878906 3.046875 -17.734375 C 3.929688 -19.585938 5.160156 -21.023438 6.734375 -22.046875 C 8.316406 -23.066406 10.109375 -23.578125 12.109375 -23.578125 Z M 12.109375 -23.578125 "/></g></g></g><g fill="#ffbd59" fill-opacity="1"><g transform="translate(155.303178, 213.573526)"><g><path d="M 9.703125 -22.46875 C 8.910156 -22.425781 8.335938 -22.335938 7.984375 -22.203125 C 7.628906 -22.078125 7.382812 -21.828125 7.25 -21.453125 C 7.113281 -21.085938 7.046875 -20.488281 7.046875 -19.65625 L 7.046875 -3.46875 C 7.046875 -2.632812 7.113281 -2.03125 7.25 -1.65625 C 7.382812 -1.289062 7.628906 -1.046875 7.984375 -0.921875 C 8.335938 -0.804688 8.910156 -0.75 9.703125 -0.75 L 12.078125 -0.75 C 13.429688 -0.75 14.460938 -0.9375 15.171875 -1.3125 C 15.878906 -1.695312 16.394531 -2.3125 16.71875 -3.15625 C 17.039062 -4.007812 17.28125 -5.242188 17.4375 -6.859375 L 18.1875 -6.859375 C 18.125 -6.179688 18.09375 -5.289062 18.09375 -4.1875 C 18.09375 -2.9375 18.164062 -1.539062 18.3125 0 C 16.832031 -0.0625 14.34375 -0.09375 10.84375 -0.09375 C 6.664062 -0.09375 3.507812 -0.0625 1.375 0 L 1.375 -0.65625 C 2.15625 -0.695312 2.722656 -0.78125 3.078125 -0.90625 C 3.441406 -1.039062 3.6875 -1.289062 3.8125 -1.65625 C 3.945312 -2.03125 4.015625 -2.632812 4.015625 -3.46875 L 4.015625 -19.65625 C 4.015625 -20.488281 3.945312 -21.085938 3.8125 -21.453125 C 3.6875 -21.828125 3.441406 -22.078125 3.078125 -22.203125 C 2.722656 -22.335938 2.15625 -22.425781 1.375 -22.46875 L 1.375 -23.125 C 2.289062 -23.050781 3.679688 -23.015625 5.546875 -23.015625 C 7.285156 -23.015625 8.671875 -23.050781 9.703125 -23.125 Z M 9.703125 -22.46875 "/></g></g></g><g fill="#ffbd59" fill-opacity="1"><g transform="translate(174.504284, 213.573526)"><g><path d="M 9.703125 -22.46875 C 8.910156 -22.425781 8.335938 -22.335938 7.984375 -22.203125 C 7.628906 -22.078125 7.382812 -21.828125 7.25 -21.453125 C 7.113281 -21.085938 7.046875 -20.488281 7.046875 -19.65625 L 7.046875 -3.46875 C 7.046875 -2.632812 7.113281 -2.03125 7.25 -1.65625 C 7.382812 -1.289062 7.628906 -1.039062 7.984375 -0.90625 C 8.335938 -0.78125 8.910156 -0.695312 9.703125 -0.65625 L 9.703125 0 C 8.703125 -0.0625 7.316406 -0.09375 5.546875 -0.09375 C 3.679688 -0.09375 2.289062 -0.0625 1.375 0 L 1.375 -0.65625 C 2.15625 -0.695312 2.722656 -0.78125 3.078125 -0.90625 C 3.441406 -1.039062 3.6875 -1.289062 3.8125 -1.65625 C 3.945312 -2.03125 4.015625 -2.632812 4.015625 -3.46875 L 4.015625 -19.65625 C 4.015625 -20.488281 3.945312 -21.085938 3.8125 -21.453125 C 3.6875 -21.828125 3.441406 -22.078125 3.078125 -22.203125 C 2.722656 -22.335938 2.15625 -22.425781 1.375 -22.46875 L 1.375 -23.125 C 2.289062 -23.050781 3.679688 -23.015625 5.546875 -23.015625 C 7.285156 -23.015625 8.671875 -23.050781 9.703125 -23.125 Z M 9.703125 -22.46875 "/></g></g></g><g fill="#ffbd59" fill-opacity="1"><g transform="translate(185.574308, 213.573526)"><g><path d="M 21.875 -22.46875 C 21.113281 -22.425781 20.546875 -22.3125 20.171875 -22.125 C 19.804688 -21.9375 19.554688 -21.628906 19.421875 -21.203125 C 19.296875 -20.785156 19.234375 -20.160156 19.234375 -19.328125 L 19.234375 0.15625 L 18.484375 0.15625 L 4.765625 -21.03125 L 4.765625 -3.78125 C 4.765625 -2.9375 4.832031 -2.304688 4.96875 -1.890625 C 5.113281 -1.484375 5.394531 -1.1875 5.8125 -1 C 6.226562 -0.8125 6.867188 -0.695312 7.734375 -0.65625 L 7.734375 0 C 6.953125 -0.0625 5.84375 -0.09375 4.40625 -0.09375 C 3.101562 -0.09375 2.09375 -0.0625 1.375 0 L 1.375 -0.65625 C 2.132812 -0.695312 2.695312 -0.8125 3.0625 -1 C 3.4375 -1.1875 3.6875 -1.488281 3.8125 -1.90625 C 3.945312 -2.332031 4.015625 -2.957031 4.015625 -3.78125 L 4.015625 -19.65625 C 4.015625 -20.488281 3.945312 -21.085938 3.8125 -21.453125 C 3.6875 -21.828125 3.441406 -22.078125 3.078125 -22.203125 C 2.722656 -22.335938 2.15625 -22.425781 1.375 -22.46875 L 1.375 -23.125 C 2.09375 -23.050781 3.101562 -23.015625 4.40625 -23.015625 C 5.382812 -23.015625 6.234375 -23.050781 6.953125 -23.125 L 18.484375 -5.359375 L 18.484375 -19.328125 C 18.484375 -20.179688 18.410156 -20.8125 18.265625 -21.21875 C 18.128906 -21.632812 17.851562 -21.9375 17.4375 -22.125 C 17.019531 -22.3125 16.378906 -22.425781 15.515625 -22.46875 L 15.515625 -23.125 C 16.296875 -23.050781 17.40625 -23.015625 18.84375 -23.015625 C 20.144531 -23.015625 21.15625 -23.050781 21.875 -23.125 Z M 21.875 -22.46875 "/></g></g></g><g fill="#ffbd59" fill-opacity="1"><g transform="translate(208.628696, 213.573526)"><g><path d="M 9.703125 -22.46875 C 8.910156 -22.425781 8.335938 -22.335938 7.984375 -22.203125 C 7.628906 -22.078125 7.382812 -21.828125 7.25 -21.453125 C 7.113281 -21.085938 7.046875 -20.488281 7.046875 -19.65625 L 7.046875 -3.46875 C 7.046875 -2.632812 7.113281 -2.03125 7.25 -1.65625 C 7.382812 -1.289062 7.628906 -1.039062 7.984375 -0.90625 C 8.335938 -0.78125 8.910156 -0.695312 9.703125 -0.65625 L 9.703125 0 C 8.703125 -0.0625 7.316406 -0.09375 5.546875 -0.09375 C 3.679688 -0.09375 2.289062 -0.0625 1.375 0 L 1.375 -0.65625 C 2.15625 -0.695312 2.722656 -0.78125 3.078125 -0.90625 C 3.441406 -1.039062 3.6875 -1.289062 3.8125 -1.65625 C 3.945312 -2.03125 4.015625 -2.632812 4.015625 -3.46875 L 4.015625 -19.65625 C 4.015625 -20.488281 3.945312 -21.085938 3.8125 -21.453125 C 3.6875 -21.828125 3.441406 -22.078125 3.078125 -22.203125 C 2.722656 -22.335938 2.15625 -22.425781 1.375 -22.46875 L 1.375 -23.125 C 2.289062 -23.050781 3.679688 -23.015625 5.546875 -23.015625 C 7.285156 -23.015625 8.671875 -23.050781 9.703125 -23.125 Z M 9.703125 -22.46875 "/></g></g></g><g fill="#ffbd59" fill-opacity="1"><g transform="translate(219.69872, 213.573526)"><g><path d="M 12.109375 -23.578125 C 13.421875 -23.578125 14.53125 -23.390625 15.4375 -23.015625 C 16.351562 -22.648438 17.25 -22.128906 18.125 -21.453125 C 18.363281 -21.253906 18.570312 -21.15625 18.75 -21.15625 C 19.175781 -21.15625 19.457031 -21.8125 19.59375 -23.125 L 20.34375 -23.125 C 20.257812 -21.707031 20.21875 -19.203125 20.21875 -15.609375 L 19.46875 -15.609375 C 19.226562 -17.023438 19.007812 -18.039062 18.8125 -18.65625 C 18.613281 -19.28125 18.285156 -19.875 17.828125 -20.4375 C 17.171875 -21.289062 16.335938 -21.925781 15.328125 -22.34375 C 14.316406 -22.769531 13.222656 -22.984375 12.046875 -22.984375 C 10.628906 -22.984375 9.394531 -22.515625 8.34375 -21.578125 C 7.289062 -20.648438 6.46875 -19.316406 5.875 -17.578125 C 5.289062 -15.847656 5 -13.820312 5 -11.5 C 5 -9.125 5.3125 -7.085938 5.9375 -5.390625 C 6.570312 -3.691406 7.445312 -2.398438 8.5625 -1.515625 C 9.6875 -0.640625 10.957031 -0.203125 12.375 -0.203125 C 13.46875 -0.203125 14.523438 -0.40625 15.546875 -0.8125 C 16.566406 -1.226562 17.367188 -1.847656 17.953125 -2.671875 C 18.390625 -3.285156 18.707031 -3.941406 18.90625 -4.640625 C 19.101562 -5.335938 19.289062 -6.40625 19.46875 -7.84375 L 20.21875 -7.84375 C 20.21875 -4.09375 20.257812 -1.476562 20.34375 0 L 19.59375 0 C 19.53125 -0.695312 19.4375 -1.191406 19.3125 -1.484375 C 19.195312 -1.773438 19.03125 -1.921875 18.8125 -1.921875 C 18.632812 -1.921875 18.40625 -1.835938 18.125 -1.671875 C 17.144531 -0.972656 16.207031 -0.441406 15.3125 -0.078125 C 14.425781 0.273438 13.347656 0.453125 12.078125 0.453125 C 10.015625 0.453125 8.203125 -0.0078125 6.640625 -0.9375 C 5.085938 -1.875 3.878906 -3.226562 3.015625 -5 C 2.160156 -6.78125 1.734375 -8.898438 1.734375 -11.359375 C 1.734375 -13.753906 2.171875 -15.878906 3.046875 -17.734375 C 3.929688 -19.585938 5.160156 -21.023438 6.734375 -22.046875 C 8.316406 -23.066406 10.109375 -23.578125 12.109375 -23.578125 Z M 12.109375 -23.578125 "/></g></g></g><g fill="#ffbd59" fill-opacity="1"><g transform="translate(136.856026, 237.732473)"><g><path d="M 9.234375 -7.828125 C 9.566406 -7.828125 9.84375 -7.835938 10.0625 -7.859375 L 10.0625 -7.625 C 9.644531 -7.53125 9.351562 -7.210938 9.1875 -6.671875 L 7.09375 0.0625 L 6.90625 0.0625 L 4.984375 -5.65625 L 3.21875 0.0625 L 3.046875 0.0625 L 0.6875 -6.921875 C 0.53125 -7.378906 0.273438 -7.613281 -0.078125 -7.625 L -0.078125 -7.859375 C 0.222656 -7.835938 0.617188 -7.828125 1.109375 -7.828125 C 1.640625 -7.828125 2.039062 -7.835938 2.3125 -7.859375 L 2.3125 -7.625 C 2.113281 -7.613281 1.972656 -7.578125 1.890625 -7.515625 C 1.804688 -7.460938 1.765625 -7.375 1.765625 -7.25 C 1.765625 -7.125 1.804688 -6.941406 1.890625 -6.703125 L 3.5 -1.75 L 4.859375 -6.046875 L 4.5625 -6.921875 C 4.414062 -7.378906 4.195312 -7.613281 3.90625 -7.625 L 3.90625 -7.859375 C 4.164062 -7.835938 4.523438 -7.828125 4.984375 -7.828125 C 5.617188 -7.828125 6.09375 -7.835938 6.40625 -7.859375 L 6.40625 -7.625 C 6.125 -7.613281 5.925781 -7.582031 5.8125 -7.53125 C 5.695312 -7.488281 5.640625 -7.390625 5.640625 -7.234375 C 5.640625 -7.097656 5.675781 -6.921875 5.75 -6.703125 L 7.359375 -1.765625 L 8.71875 -6.0625 C 8.832031 -6.414062 8.890625 -6.710938 8.890625 -6.953125 C 8.890625 -7.203125 8.816406 -7.375 8.671875 -7.46875 C 8.523438 -7.570312 8.285156 -7.625 7.953125 -7.625 L 7.953125 -7.859375 C 8.378906 -7.835938 8.804688 -7.828125 9.234375 -7.828125 Z M 9.234375 -7.828125 "/></g></g></g><g fill="#ffbd59" fill-opacity="1"><g transform="translate(146.897982, 237.732473)"><g><path d="M 3.296875 -7.625 C 3.023438 -7.613281 2.828125 -7.585938 2.703125 -7.546875 C 2.585938 -7.503906 2.503906 -7.414062 2.453125 -7.28125 C 2.410156 -7.15625 2.390625 -6.953125 2.390625 -6.671875 L 2.390625 -1.171875 C 2.390625 -0.890625 2.410156 -0.6875 2.453125 -0.5625 C 2.503906 -0.4375 2.585938 -0.351562 2.703125 -0.3125 C 2.828125 -0.269531 3.023438 -0.238281 3.296875 -0.21875 L 3.296875 0 C 2.953125 -0.0195312 2.484375 -0.03125 1.890625 -0.03125 C 1.253906 -0.03125 0.78125 -0.0195312 0.46875 0 L 0.46875 -0.21875 C 0.726562 -0.238281 0.921875 -0.269531 1.046875 -0.3125 C 1.171875 -0.351562 1.253906 -0.4375 1.296875 -0.5625 C 1.335938 -0.6875 1.359375 -0.890625 1.359375 -1.171875 L 1.359375 -6.671875 C 1.359375 -6.953125 1.335938 -7.15625 1.296875 -7.28125 C 1.253906 -7.414062 1.171875 -7.503906 1.046875 -7.546875 C 0.921875 -7.585938 0.726562 -7.613281 0.46875 -7.625 L 0.46875 -7.859375 C 0.78125 -7.835938 1.253906 -7.828125 1.890625 -7.828125 C 2.484375 -7.828125 2.953125 -7.835938 3.296875 -7.859375 Z M 3.296875 -7.625 "/></g></g></g><g fill="#ffbd59" fill-opacity="1"><g transform="translate(150.659556, 237.732473)"><g><path d="M 6.28125 -0.90625 C 6.40625 -0.71875 6.539062 -0.566406 6.6875 -0.453125 C 6.84375 -0.347656 7.03125 -0.269531 7.25 -0.21875 L 7.25 0 C 6.894531 -0.0195312 6.453125 -0.03125 5.921875 -0.03125 C 5.523438 -0.03125 5.144531 -0.0195312 4.78125 0 L 4.78125 -0.21875 C 4.957031 -0.226562 5.085938 -0.25 5.171875 -0.28125 C 5.253906 -0.320312 5.296875 -0.378906 5.296875 -0.453125 C 5.296875 -0.523438 5.257812 -0.613281 5.1875 -0.71875 L 3.5625 -3.15625 C 3.34375 -3.488281 3.160156 -3.703125 3.015625 -3.796875 C 2.867188 -3.898438 2.660156 -3.957031 2.390625 -3.96875 L 2.390625 -1.171875 C 2.390625 -0.890625 2.410156 -0.6875 2.453125 -0.5625 C 2.503906 -0.4375 2.585938 -0.351562 2.703125 -0.3125 C 2.828125 -0.269531 3.023438 -0.238281 3.296875 -0.21875 L 3.296875 0 C 2.953125 -0.0195312 2.484375 -0.03125 1.890625 -0.03125 C 1.253906 -0.03125 0.78125 -0.0195312 0.46875 0 L 0.46875 -0.21875 C 0.726562 -0.238281 0.921875 -0.269531 1.046875 -0.3125 C 1.171875 -0.351562 1.253906 -0.4375 1.296875 -0.5625 C 1.335938 -0.6875 1.359375 -0.890625 1.359375 -1.171875 L 1.359375 -6.671875 C 1.359375 -6.953125 1.335938 -7.15625 1.296875 -7.28125 C 1.253906 -7.414062 1.171875 -7.503906 1.046875 -7.546875 C 0.921875 -7.585938 0.726562 -7.613281 0.46875 -7.625 L 0.46875 -7.859375 C 0.78125 -7.835938 1.253906 -7.828125 1.890625 -7.828125 C 2.484375 -7.828125 2.953125 -7.835938 3.296875 -7.859375 L 3.296875 -7.625 C 3.023438 -7.613281 2.828125 -7.585938 2.703125 -7.546875 C 2.585938 -7.503906 2.503906 -7.414062 2.453125 -7.28125 C 2.410156 -7.15625 2.390625 -6.953125 2.390625 -6.671875 L 2.390625 -4.1875 C 2.929688 -4.21875 3.351562 -4.425781 3.65625 -4.8125 L 4.71875 -6.171875 C 5.101562 -6.628906 5.296875 -6.984375 5.296875 -7.234375 C 5.296875 -7.492188 5.066406 -7.625 4.609375 -7.625 L 4.609375 -7.859375 C 5.023438 -7.835938 5.445312 -7.828125 5.875 -7.828125 C 6.28125 -7.828125 6.597656 -7.835938 6.828125 -7.859375 L 6.828125 -7.625 C 6.578125 -7.59375 6.34375 -7.515625 6.125 -7.390625 C 5.914062 -7.273438 5.710938 -7.085938 5.515625 -6.828125 L 3.703125 -4.5 Z M 6.28125 -0.90625 "/></g></g></g><g fill="#ffbd59" fill-opacity="1"><g transform="translate(157.927496, 237.732473)"><g><path d="M 6.5625 -7.859375 C 6.507812 -7.328125 6.484375 -6.851562 6.484375 -6.4375 C 6.484375 -6.0625 6.492188 -5.757812 6.515625 -5.53125 L 6.265625 -5.53125 C 6.203125 -6.09375 6.125 -6.515625 6.03125 -6.796875 C 5.945312 -7.078125 5.796875 -7.28125 5.578125 -7.40625 C 5.359375 -7.53125 5.019531 -7.59375 4.5625 -7.59375 L 3.953125 -7.59375 L 3.953125 -1.28125 C 3.953125 -0.976562 3.984375 -0.753906 4.046875 -0.609375 C 4.109375 -0.472656 4.210938 -0.378906 4.359375 -0.328125 C 4.503906 -0.273438 4.742188 -0.238281 5.078125 -0.21875 L 5.078125 0 C 4.691406 -0.0195312 4.148438 -0.03125 3.453125 -0.03125 C 2.710938 -0.03125 2.164062 -0.0195312 1.8125 0 L 1.8125 -0.21875 C 2.144531 -0.238281 2.382812 -0.273438 2.53125 -0.328125 C 2.675781 -0.378906 2.773438 -0.472656 2.828125 -0.609375 C 2.890625 -0.753906 2.921875 -0.976562 2.921875 -1.28125 L 2.921875 -7.59375 L 2.328125 -7.59375 C 1.867188 -7.59375 1.523438 -7.53125 1.296875 -7.40625 C 1.078125 -7.28125 0.921875 -7.078125 0.828125 -6.796875 C 0.742188 -6.515625 0.675781 -6.09375 0.625 -5.53125 L 0.359375 -5.53125 C 0.390625 -5.757812 0.40625 -6.0625 0.40625 -6.4375 C 0.40625 -6.851562 0.378906 -7.328125 0.328125 -7.859375 C 0.941406 -7.835938 1.984375 -7.828125 3.453125 -7.828125 C 4.910156 -7.828125 5.945312 -7.835938 6.5625 -7.859375 Z M 6.5625 -7.859375 "/></g></g></g><g fill="#ffbd59" fill-opacity="1"><g transform="translate(164.818166, 237.732473)"><g><path d="M 4.109375 -8.015625 C 4.816406 -8.015625 5.429688 -7.851562 5.953125 -7.53125 C 6.484375 -7.21875 6.894531 -6.757812 7.1875 -6.15625 C 7.476562 -5.550781 7.625 -4.832031 7.625 -4 C 7.625 -3.1875 7.472656 -2.460938 7.171875 -1.828125 C 6.878906 -1.203125 6.460938 -0.710938 5.921875 -0.359375 C 5.390625 -0.015625 4.785156 0.15625 4.109375 0.15625 C 3.398438 0.15625 2.78125 0 2.25 -0.3125 C 1.726562 -0.632812 1.320312 -1.097656 1.03125 -1.703125 C 0.738281 -2.304688 0.59375 -3.023438 0.59375 -3.859375 C 0.59375 -4.671875 0.738281 -5.390625 1.03125 -6.015625 C 1.332031 -6.648438 1.75 -7.140625 2.28125 -7.484375 C 2.820312 -7.835938 3.429688 -8.015625 4.109375 -8.015625 Z M 4.078125 -7.8125 C 3.597656 -7.8125 3.175781 -7.644531 2.8125 -7.3125 C 2.457031 -6.988281 2.179688 -6.53125 1.984375 -5.9375 C 1.796875 -5.34375 1.703125 -4.664062 1.703125 -3.90625 C 1.703125 -3.132812 1.8125 -2.457031 2.03125 -1.875 C 2.25 -1.289062 2.539062 -0.835938 2.90625 -0.515625 C 3.28125 -0.203125 3.695312 -0.046875 4.15625 -0.046875 C 4.625 -0.046875 5.035156 -0.207031 5.390625 -0.53125 C 5.753906 -0.863281 6.03125 -1.328125 6.21875 -1.921875 C 6.414062 -2.515625 6.515625 -3.191406 6.515625 -3.953125 C 6.515625 -4.722656 6.40625 -5.398438 6.1875 -5.984375 C 5.976562 -6.566406 5.6875 -7.015625 5.3125 -7.328125 C 4.945312 -7.648438 4.535156 -7.8125 4.078125 -7.8125 Z M 4.078125 -7.8125 "/></g></g></g><g fill="#ffbd59" fill-opacity="1"><g transform="translate(173.040362, 237.732473)"><g><path d="M 7.328125 -0.5625 C 7.148438 -0.300781 6.976562 -0.113281 6.8125 0 C 6.644531 0.101562 6.421875 0.15625 6.140625 0.15625 C 5.835938 0.15625 5.585938 0.0664062 5.390625 -0.109375 C 5.191406 -0.285156 5.046875 -0.597656 4.953125 -1.046875 L 4.703125 -2.15625 C 4.617188 -2.539062 4.535156 -2.832031 4.453125 -3.03125 C 4.378906 -3.238281 4.265625 -3.40625 4.109375 -3.53125 C 3.953125 -3.664062 3.734375 -3.734375 3.453125 -3.734375 L 2.390625 -3.734375 L 2.390625 -1.171875 C 2.390625 -0.890625 2.410156 -0.6875 2.453125 -0.5625 C 2.503906 -0.4375 2.585938 -0.351562 2.703125 -0.3125 C 2.828125 -0.269531 3.023438 -0.238281 3.296875 -0.21875 L 3.296875 0 C 2.953125 -0.0195312 2.484375 -0.03125 1.890625 -0.03125 C 1.253906 -0.03125 0.78125 -0.0195312 0.46875 0 L 0.46875 -0.21875 C 0.726562 -0.238281 0.921875 -0.269531 1.046875 -0.3125 C 1.171875 -0.351562 1.253906 -0.4375 1.296875 -0.5625 C 1.335938 -0.6875 1.359375 -0.890625 1.359375 -1.171875 L 1.359375 -6.671875 C 1.359375 -6.953125 1.335938 -7.15625 1.296875 -7.28125 C 1.253906 -7.414062 1.171875 -7.503906 1.046875 -7.546875 C 0.921875 -7.585938 0.726562 -7.613281 0.46875 -7.625 L 0.46875 -7.859375 C 0.78125 -7.835938 1.226562 -7.828125 1.8125 -7.828125 L 3.015625 -7.828125 C 3.160156 -7.835938 3.320312 -7.84375 3.5 -7.84375 C 4.351562 -7.84375 5.007812 -7.660156 5.46875 -7.296875 C 5.9375 -6.941406 6.171875 -6.476562 6.171875 -5.90625 C 6.171875 -5.625 6.097656 -5.335938 5.953125 -5.046875 C 5.816406 -4.753906 5.585938 -4.488281 5.265625 -4.25 C 4.953125 -4.019531 4.535156 -3.863281 4.015625 -3.78125 L 4.15625 -3.765625 C 4.632812 -3.679688 4.984375 -3.53125 5.203125 -3.3125 C 5.429688 -3.101562 5.597656 -2.765625 5.703125 -2.296875 L 5.984375 -1.171875 C 6.054688 -0.828125 6.128906 -0.585938 6.203125 -0.453125 C 6.285156 -0.316406 6.398438 -0.25 6.546875 -0.25 C 6.671875 -0.25 6.773438 -0.28125 6.859375 -0.34375 C 6.941406 -0.414062 7.039062 -0.523438 7.15625 -0.671875 Z M 3.21875 -7.625 C 2.988281 -7.625 2.816406 -7.597656 2.703125 -7.546875 C 2.585938 -7.503906 2.503906 -7.414062 2.453125 -7.28125 C 2.410156 -7.144531 2.390625 -6.941406 2.390625 -6.671875 L 2.390625 -3.953125 L 3.140625 -3.953125 C 3.867188 -3.953125 4.367188 -4.113281 4.640625 -4.4375 C 4.921875 -4.757812 5.0625 -5.210938 5.0625 -5.796875 C 5.0625 -6.398438 4.914062 -6.851562 4.625 -7.15625 C 4.332031 -7.46875 3.863281 -7.625 3.21875 -7.625 Z M 3.21875 -7.625 "/></g></g></g><g fill="#ffbd59" fill-opacity="1"><g transform="translate(180.230631, 237.732473)"><g><path d="M 3.296875 -7.625 C 3.023438 -7.613281 2.828125 -7.585938 2.703125 -7.546875 C 2.585938 -7.503906 2.503906 -7.414062 2.453125 -7.28125 C 2.410156 -7.15625 2.390625 -6.953125 2.390625 -6.671875 L 2.390625 -1.171875 C 2.390625 -0.890625 2.410156 -0.6875 2.453125 -0.5625 C 2.503906 -0.4375 2.585938 -0.351562 2.703125 -0.3125 C 2.828125 -0.269531 3.023438 -0.238281 3.296875 -0.21875 L 3.296875 0 C 2.953125 -0.0195312 2.484375 -0.03125 1.890625 -0.03125 C 1.253906 -0.03125 0.78125 -0.0195312 0.46875 0 L 0.46875 -0.21875 C 0.726562 -0.238281 0.921875 -0.269531 1.046875 -0.3125 C 1.171875 -0.351562 1.253906 -0.4375 1.296875 -0.5625 C 1.335938 -0.6875 1.359375 -0.890625 1.359375 -1.171875 L 1.359375 -6.671875 C 1.359375 -6.953125 1.335938 -7.15625 1.296875 -7.28125 C 1.253906 -7.414062 1.171875 -7.503906 1.046875 -7.546875 C 0.921875 -7.585938 0.726562 -7.613281 0.46875 -7.625 L 0.46875 -7.859375 C 0.78125 -7.835938 1.253906 -7.828125 1.890625 -7.828125 C 2.484375 -7.828125 2.953125 -7.835938 3.296875 -7.859375 Z M 3.296875 -7.625 "/></g></g></g><g fill="#ffbd59" fill-opacity="1"><g transform="translate(183.992204, 237.732473)"><g><path d="M 6.296875 -0.9375 C 6.472656 -0.476562 6.726562 -0.238281 7.0625 -0.21875 L 7.0625 0 C 6.757812 -0.0195312 6.363281 -0.03125 5.875 -0.03125 C 5.238281 -0.03125 4.765625 -0.0195312 4.453125 0 L 4.453125 -0.21875 C 4.734375 -0.238281 4.929688 -0.273438 5.046875 -0.328125 C 5.171875 -0.378906 5.234375 -0.476562 5.234375 -0.625 C 5.234375 -0.757812 5.191406 -0.9375 5.109375 -1.15625 L 4.421875 -2.96875 L 1.734375 -2.96875 L 1.28125 -1.796875 C 1.132812 -1.398438 1.0625 -1.097656 1.0625 -0.890625 C 1.0625 -0.660156 1.140625 -0.492188 1.296875 -0.390625 C 1.460938 -0.285156 1.707031 -0.226562 2.03125 -0.21875 L 2.03125 0 C 1.601562 -0.0195312 1.175781 -0.03125 0.75 -0.03125 C 0.414062 -0.03125 0.140625 -0.0195312 -0.078125 0 L -0.078125 -0.21875 C 0.296875 -0.3125 0.585938 -0.632812 0.796875 -1.1875 L 3.40625 -7.90625 L 3.578125 -7.90625 Z M 4.34375 -3.1875 L 3.09375 -6.515625 L 1.828125 -3.1875 Z M 4.34375 -3.1875 "/></g></g></g><g fill="#ffbd59" fill-opacity="1"><g transform="translate(190.982737, 237.732473)"><g/></g></g><g fill="#ffbd59" fill-opacity="1"><g transform="translate(193.745663, 237.732473)"><g><path d="M 9.203125 -7.625 C 8.929688 -7.613281 8.734375 -7.585938 8.609375 -7.546875 C 8.492188 -7.503906 8.410156 -7.414062 8.359375 -7.28125 C 8.316406 -7.15625 8.296875 -6.953125 8.296875 -6.671875 L 8.296875 -1.171875 C 8.296875 -0.890625 8.316406 -0.6875 8.359375 -0.5625 C 8.410156 -0.4375 8.492188 -0.351562 8.609375 -0.3125 C 8.734375 -0.269531 8.929688 -0.238281 9.203125 -0.21875 L 9.203125 0 C 8.859375 -0.0195312 8.382812 -0.03125 7.78125 -0.03125 C 7.144531 -0.03125 6.675781 -0.0195312 6.375 0 L 6.375 -0.21875 C 6.632812 -0.238281 6.828125 -0.269531 6.953125 -0.3125 C 7.078125 -0.351562 7.160156 -0.4375 7.203125 -0.5625 C 7.242188 -0.6875 7.265625 -0.890625 7.265625 -1.171875 L 7.265625 -7.125 L 4.59375 0.0625 L 4.421875 0.0625 L 1.625 -7.140625 L 1.625 -1.28125 C 1.625 -1 1.644531 -0.785156 1.6875 -0.640625 C 1.738281 -0.503906 1.832031 -0.40625 1.96875 -0.34375 C 2.113281 -0.28125 2.332031 -0.238281 2.625 -0.21875 L 2.625 0 C 2.363281 -0.0195312 1.988281 -0.03125 1.5 -0.03125 C 1.050781 -0.03125 0.707031 -0.0195312 0.46875 0 L 0.46875 -0.21875 C 0.726562 -0.238281 0.921875 -0.28125 1.046875 -0.34375 C 1.171875 -0.40625 1.253906 -0.503906 1.296875 -0.640625 C 1.335938 -0.785156 1.359375 -1 1.359375 -1.28125 L 1.359375 -6.671875 C 1.359375 -6.953125 1.335938 -7.15625 1.296875 -7.28125 C 1.253906 -7.414062 1.171875 -7.503906 1.046875 -7.546875 C 0.921875 -7.585938 0.726562 -7.613281 0.46875 -7.625 L 0.46875 -7.859375 C 0.707031 -7.835938 1.050781 -7.828125 1.5 -7.828125 C 1.882812 -7.828125 2.195312 -7.835938 2.4375 -7.859375 L 4.875 -1.4375 L 7.265625 -7.828125 L 7.78125 -7.828125 C 8.382812 -7.828125 8.859375 -7.835938 9.203125 -7.859375 Z M 9.203125 -7.625 "/></g></g></g><g fill="#ffbd59" fill-opacity="1"><g transform="translate(203.410359, 237.732473)"><g><path d="M 3.296875 -7.625 C 3.023438 -7.613281 2.828125 -7.585938 2.703125 -7.546875 C 2.585938 -7.503906 2.503906 -7.414062 2.453125 -7.28125 C 2.410156 -7.15625 2.390625 -6.953125 2.390625 -6.671875 L 2.390625 -1.171875 C 2.390625 -0.890625 2.410156 -0.6875 2.453125 -0.5625 C 2.503906 -0.4375 2.585938 -0.351562 2.703125 -0.3125 C 2.828125 -0.269531 3.023438 -0.238281 3.296875 -0.21875 L 3.296875 0 C 2.953125 -0.0195312 2.484375 -0.03125 1.890625 -0.03125 C 1.253906 -0.03125 0.78125 -0.0195312 0.46875 0 L 0.46875 -0.21875 C 0.726562 -0.238281 0.921875 -0.269531 1.046875 -0.3125 C 1.171875 -0.351562 1.253906 -0.4375 1.296875 -0.5625 C 1.335938 -0.6875 1.359375 -0.890625 1.359375 -1.171875 L 1.359375 -6.671875 C 1.359375 -6.953125 1.335938 -7.15625 1.296875 -7.28125 C 1.253906 -7.414062 1.171875 -7.503906 1.046875 -7.546875 C 0.921875 -7.585938 0.726562 -7.613281 0.46875 -7.625 L 0.46875 -7.859375 C 0.78125 -7.835938 1.253906 -7.828125 1.890625 -7.828125 C 2.484375 -7.828125 2.953125 -7.835938 3.296875 -7.859375 Z M 3.296875 -7.625 "/></g></g></g><g fill="#ffbd59" fill-opacity="1"><g transform="translate(207.171933, 237.732473)"><g><path d="M 2.84375 -7.96875 C 3.164062 -7.96875 3.421875 -7.929688 3.609375 -7.859375 C 3.796875 -7.796875 3.988281 -7.695312 4.1875 -7.5625 C 4.351562 -7.457031 4.484375 -7.40625 4.578125 -7.40625 C 4.640625 -7.40625 4.6875 -7.441406 4.71875 -7.515625 C 4.757812 -7.597656 4.789062 -7.726562 4.8125 -7.90625 L 5.0625 -7.90625 C 5.03125 -7.46875 5.015625 -6.710938 5.015625 -5.640625 L 4.765625 -5.640625 C 4.710938 -6.234375 4.535156 -6.734375 4.234375 -7.140625 C 3.941406 -7.554688 3.507812 -7.765625 2.9375 -7.765625 C 2.539062 -7.765625 2.21875 -7.644531 1.96875 -7.40625 C 1.71875 -7.164062 1.59375 -6.859375 1.59375 -6.484375 C 1.59375 -6.203125 1.65625 -5.957031 1.78125 -5.75 C 1.90625 -5.539062 2.066406 -5.363281 2.265625 -5.21875 C 2.472656 -5.070312 2.757812 -4.878906 3.125 -4.640625 L 3.453125 -4.453125 C 3.921875 -4.160156 4.285156 -3.90625 4.546875 -3.6875 C 4.816406 -3.46875 5.035156 -3.21875 5.203125 -2.9375 C 5.367188 -2.65625 5.453125 -2.328125 5.453125 -1.953125 C 5.453125 -1.273438 5.226562 -0.753906 4.78125 -0.390625 C 4.332031 -0.0234375 3.769531 0.15625 3.09375 0.15625 C 2.738281 0.15625 2.445312 0.117188 2.21875 0.046875 C 2 -0.0234375 1.785156 -0.125 1.578125 -0.25 C 1.410156 -0.351562 1.285156 -0.40625 1.203125 -0.40625 C 1.128906 -0.40625 1.070312 -0.363281 1.03125 -0.28125 C 1 -0.207031 0.972656 -0.0859375 0.953125 0.078125 L 0.703125 0.078125 C 0.734375 -0.328125 0.75 -1.210938 0.75 -2.578125 L 1 -2.578125 C 1.050781 -1.835938 1.234375 -1.234375 1.546875 -0.765625 C 1.867188 -0.296875 2.359375 -0.0625 3.015625 -0.0625 C 3.410156 -0.0625 3.75 -0.1875 4.03125 -0.4375 C 4.3125 -0.6875 4.453125 -1.054688 4.453125 -1.546875 C 4.453125 -1.953125 4.3125 -2.300781 4.03125 -2.59375 C 3.757812 -2.882812 3.328125 -3.210938 2.734375 -3.578125 C 2.296875 -3.835938 1.941406 -4.070312 1.671875 -4.28125 C 1.398438 -4.488281 1.175781 -4.738281 1 -5.03125 C 0.832031 -5.320312 0.75 -5.664062 0.75 -6.0625 C 0.75 -6.675781 0.945312 -7.144531 1.34375 -7.46875 C 1.75 -7.800781 2.25 -7.96875 2.84375 -7.96875 Z M 2.84375 -7.96875 "/></g></g></g><g fill="#ffbd59" fill-opacity="1"><g transform="translate(213.163818, 237.732473)"><g><path d="M 3.296875 -7.625 C 3.023438 -7.613281 2.828125 -7.585938 2.703125 -7.546875 C 2.585938 -7.503906 2.503906 -7.414062 2.453125 -7.28125 C 2.410156 -7.15625 2.390625 -6.953125 2.390625 -6.671875 L 2.390625 -1.171875 C 2.390625 -0.890625 2.410156 -0.6875 2.453125 -0.5625 C 2.503906 -0.4375 2.585938 -0.351562 2.703125 -0.3125 C 2.828125 -0.269531 3.023438 -0.238281 3.296875 -0.21875 L 3.296875 0 C 2.953125 -0.0195312 2.484375 -0.03125 1.890625 -0.03125 C 1.253906 -0.03125 0.78125 -0.0195312 0.46875 0 L 0.46875 -0.21875 C 0.726562 -0.238281 0.921875 -0.269531 1.046875 -0.3125 C 1.171875 -0.351562 1.253906 -0.4375 1.296875 -0.5625 C 1.335938 -0.6875 1.359375 -0.890625 1.359375 -1.171875 L 1.359375 -6.671875 C 1.359375 -6.953125 1.335938 -7.15625 1.296875 -7.28125 C 1.253906 -7.414062 1.171875 -7.503906 1.046875 -7.546875 C 0.921875 -7.585938 0.726562 -7.613281 0.46875 -7.625 L 0.46875 -7.859375 C 0.78125 -7.835938 1.253906 -7.828125 1.890625 -7.828125 C 2.484375 -7.828125 2.953125 -7.835938 3.296875 -7.859375 Z M 3.296875 -7.625 "/></g></g></g><g fill="#ffbd59" fill-opacity="1"><g transform="translate(216.925392, 237.732473)"><g><path d="M 4.109375 -8.015625 C 4.816406 -8.015625 5.429688 -7.851562 5.953125 -7.53125 C 6.484375 -7.21875 6.894531 -6.757812 7.1875 -6.15625 C 7.476562 -5.550781 7.625 -4.832031 7.625 -4 C 7.625 -3.1875 7.472656 -2.460938 7.171875 -1.828125 C 6.878906 -1.203125 6.460938 -0.710938 5.921875 -0.359375 C 5.390625 -0.015625 4.785156 0.15625 4.109375 0.15625 C 3.398438 0.15625 2.78125 0 2.25 -0.3125 C 1.726562 -0.632812 1.320312 -1.097656 1.03125 -1.703125 C 0.738281 -2.304688 0.59375 -3.023438 0.59375 -3.859375 C 0.59375 -4.671875 0.738281 -5.390625 1.03125 -6.015625 C 1.332031 -6.648438 1.75 -7.140625 2.28125 -7.484375 C 2.820312 -7.835938 3.429688 -8.015625 4.109375 -8.015625 Z M 4.078125 -7.8125 C 3.597656 -7.8125 3.175781 -7.644531 2.8125 -7.3125 C 2.457031 -6.988281 2.179688 -6.53125 1.984375 -5.9375 C 1.796875 -5.34375 1.703125 -4.664062 1.703125 -3.90625 C 1.703125 -3.132812 1.8125 -2.457031 2.03125 -1.875 C 2.25 -1.289062 2.539062 -0.835938 2.90625 -0.515625 C 3.28125 -0.203125 3.695312 -0.046875 4.15625 -0.046875 C 4.625 -0.046875 5.035156 -0.207031 5.390625 -0.53125 C 5.753906 -0.863281 6.03125 -1.328125 6.21875 -1.921875 C 6.414062 -2.515625 6.515625 -3.191406 6.515625 -3.953125 C 6.515625 -4.722656 6.40625 -5.398438 6.1875 -5.984375 C 5.976562 -6.566406 5.6875 -7.015625 5.3125 -7.328125 C 4.945312 -7.648438 4.535156 -7.8125 4.078125 -7.8125 Z M 4.078125 -7.8125 "/></g></g></g><g fill="#ffbd59" fill-opacity="1"><g transform="translate(225.147588, 237.732473)"><g><path d="M 7.328125 -0.5625 C 7.148438 -0.300781 6.976562 -0.113281 6.8125 0 C 6.644531 0.101562 6.421875 0.15625 6.140625 0.15625 C 5.835938 0.15625 5.585938 0.0664062 5.390625 -0.109375 C 5.191406 -0.285156 5.046875 -0.597656 4.953125 -1.046875 L 4.703125 -2.15625 C 4.617188 -2.539062 4.535156 -2.832031 4.453125 -3.03125 C 4.378906 -3.238281 4.265625 -3.40625 4.109375 -3.53125 C 3.953125 -3.664062 3.734375 -3.734375 3.453125 -3.734375 L 2.390625 -3.734375 L 2.390625 -1.171875 C 2.390625 -0.890625 2.410156 -0.6875 2.453125 -0.5625 C 2.503906 -0.4375 2.585938 -0.351562 2.703125 -0.3125 C 2.828125 -0.269531 3.023438 -0.238281 3.296875 -0.21875 L 3.296875 0 C 2.953125 -0.0195312 2.484375 -0.03125 1.890625 -0.03125 C 1.253906 -0.03125 0.78125 -0.0195312 0.46875 0 L 0.46875 -0.21875 C 0.726562 -0.238281 0.921875 -0.269531 1.046875 -0.3125 C 1.171875 -0.351562 1.253906 -0.4375 1.296875 -0.5625 C 1.335938 -0.6875 1.359375 -0.890625 1.359375 -1.171875 L 1.359375 -6.671875 C 1.359375 -6.953125 1.335938 -7.15625 1.296875 -7.28125 C 1.253906 -7.414062 1.171875 -7.503906 1.046875 -7.546875 C 0.921875 -7.585938 0.726562 -7.613281 0.46875 -7.625 L 0.46875 -7.859375 C 0.78125 -7.835938 1.226562 -7.828125 1.8125 -7.828125 L 3.015625 -7.828125 C 3.160156 -7.835938 3.320312 -7.84375 3.5 -7.84375 C 4.351562 -7.84375 5.007812 -7.660156 5.46875 -7.296875 C 5.9375 -6.941406 6.171875 -6.476562 6.171875 -5.90625 C 6.171875 -5.625 6.097656 -5.335938 5.953125 -5.046875 C 5.816406 -4.753906 5.585938 -4.488281 5.265625 -4.25 C 4.953125 -4.019531 4.535156 -3.863281 4.015625 -3.78125 L 4.15625 -3.765625 C 4.632812 -3.679688 4.984375 -3.53125 5.203125 -3.3125 C 5.429688 -3.101562 5.597656 -2.765625 5.703125 -2.296875 L 5.984375 -1.171875 C 6.054688 -0.828125 6.128906 -0.585938 6.203125 -0.453125 C 6.285156 -0.316406 6.398438 -0.25 6.546875 -0.25 C 6.671875 -0.25 6.773438 -0.28125 6.859375 -0.34375 C 6.941406 -0.414062 7.039062 -0.523438 7.15625 -0.671875 Z M 3.21875 -7.625 C 2.988281 -7.625 2.816406 -7.597656 2.703125 -7.546875 C 2.585938 -7.503906 2.503906 -7.414062 2.453125 -7.28125 C 2.410156 -7.144531 2.390625 -6.941406 2.390625 -6.671875 L 2.390625 -3.953125 L 3.140625 -3.953125 C 3.867188 -3.953125 4.367188 -4.113281 4.640625 -4.4375 C 4.921875 -4.757812 5.0625 -5.210938 5.0625 -5.796875 C 5.0625 -6.398438 4.914062 -6.851562 4.625 -7.15625 C 4.332031 -7.46875 3.863281 -7.625 3.21875 -7.625 Z M 3.21875 -7.625 "/></g></g></g><g fill="#ffbd59" fill-opacity="1"><g transform="translate(232.337856, 237.732473)"><g><path d="M 7.4375 -7.625 C 7.175781 -7.613281 6.984375 -7.578125 6.859375 -7.515625 C 6.734375 -7.453125 6.644531 -7.347656 6.59375 -7.203125 C 6.550781 -7.054688 6.53125 -6.84375 6.53125 -6.5625 L 6.53125 0.0625 L 6.28125 0.0625 L 1.625 -7.140625 L 1.625 -1.28125 C 1.625 -1 1.644531 -0.785156 1.6875 -0.640625 C 1.738281 -0.503906 1.832031 -0.40625 1.96875 -0.34375 C 2.113281 -0.28125 2.332031 -0.238281 2.625 -0.21875 L 2.625 0 C 2.363281 -0.0195312 1.988281 -0.03125 1.5 -0.03125 C 1.050781 -0.03125 0.707031 -0.0195312 0.46875 0 L 0.46875 -0.21875 C 0.726562 -0.238281 0.921875 -0.28125 1.046875 -0.34375 C 1.171875 -0.40625 1.253906 -0.503906 1.296875 -0.640625 C 1.335938 -0.785156 1.359375 -1 1.359375 -1.28125 L 1.359375 -6.671875 C 1.359375 -6.953125 1.335938 -7.15625 1.296875 -7.28125 C 1.253906 -7.414062 1.171875 -7.503906 1.046875 -7.546875 C 0.921875 -7.585938 0.726562 -7.613281 0.46875 -7.625 L 0.46875 -7.859375 C 0.707031 -7.835938 1.050781 -7.828125 1.5 -7.828125 C 1.832031 -7.828125 2.117188 -7.835938 2.359375 -7.859375 L 6.28125 -1.8125 L 6.28125 -6.5625 C 6.28125 -6.851562 6.253906 -7.066406 6.203125 -7.203125 C 6.160156 -7.347656 6.066406 -7.453125 5.921875 -7.515625 C 5.785156 -7.578125 5.566406 -7.613281 5.265625 -7.625 L 5.265625 -7.859375 C 5.535156 -7.835938 5.914062 -7.828125 6.40625 -7.828125 C 6.84375 -7.828125 7.1875 -7.835938 7.4375 -7.859375 Z M 7.4375 -7.625 "/></g></g></g><g fill="#ffbd59" fill-opacity="1"><g transform="translate(240.171692, 237.732473)"><g><path d="M 6.296875 -0.9375 C 6.472656 -0.476562 6.726562 -0.238281 7.0625 -0.21875 L 7.0625 0 C 6.757812 -0.0195312 6.363281 -0.03125 5.875 -0.03125 C 5.238281 -0.03125 4.765625 -0.0195312 4.453125 0 L 4.453125 -0.21875 C 4.734375 -0.238281 4.929688 -0.273438 5.046875 -0.328125 C 5.171875 -0.378906 5.234375 -0.476562 5.234375 -0.625 C 5.234375 -0.757812 5.191406 -0.9375 5.109375 -1.15625 L 4.421875 -2.96875 L 1.734375 -2.96875 L 1.28125 -1.796875 C 1.132812 -1.398438 1.0625 -1.097656 1.0625 -0.890625 C 1.0625 -0.660156 1.140625 -0.492188 1.296875 -0.390625 C 1.460938 -0.285156 1.707031 -0.226562 2.03125 -0.21875 L 2.03125 0 C 1.601562 -0.0195312 1.175781 -0.03125 0.75 -0.03125 C 0.414062 -0.03125 0.140625 -0.0195312 -0.078125 0 L -0.078125 -0.21875 C 0.296875 -0.3125 0.585938 -0.632812 0.796875 -1.1875 L 3.40625 -7.90625 L 3.578125 -7.90625 Z M 4.34375 -3.1875 L 3.09375 -6.515625 L 1.828125 -3.1875 Z M 4.34375 -3.1875 "/></g></g></g></svg>